<svg xmlns="http://www.w3.org/2000/svg" viewBox="0 0 64 64" fill="none" role="img" aria-labelledby="title desc">
  <title id="title">DESIGN.DNA Favicon</title>
  <desc id="desc">Retro-futurist data seal favicon on creme background.</desc>

  <rect width="64" height="64" rx="10" fill="#f4f1ea" />

  <circle cx="32" cy="32" r="23" stroke="#151515" stroke-width="2.3" />
  <circle cx="32" cy="32" r="19.5" stroke="#151515" stroke-width="1.2" />

  <g stroke="#151515" stroke-width="1.4" stroke-linecap="square">
    <line x1="32" y1="7.5" x2="32" y2="13.5" />
    <line x1="32" y1="50.5" x2="32" y2="56.5" />
    <line x1="7.5" y1="32" x2="13.5" y2="32" />
    <line x1="50.5" y1="32" x2="56.5" y2="32" />
  </g>

  <g stroke="#151515" stroke-width="2.1" stroke-linecap="square" stroke-linejoin="miter">
    <path d="M22 17V47" />
    <path d="M22 17H28Q34 17 34 23V41Q34 47 28 47H22" />
    <path d="M42 17V47" />
    <path d="M42 17H36Q30 17 30 23V41Q30 47 36 47H42" />
  </g>

  <line x1="32" y1="17" x2="32" y2="47" stroke="#151515" stroke-width="1.3" />
  <path d="M32 28L36 32L32 36L28 32Z" fill="#151515" />
</svg>
