<svg xmlns="http://www.w3.org/2000/svg" viewBox="0 0 128 128" fill="none" role="img" aria-labelledby="title desc">
  <title id="title">DESIGN.DNA Vibe A</title>
  <desc id="desc">Industrial tech badge with scaffold and strand motif.</desc>

  <path d="M28 12H100L116 28V100L100 116H28L12 100V28L28 12Z" stroke="#151515" stroke-width="3.2" />

  <g stroke="#151515" stroke-width="2.2" stroke-linecap="square">
    <line x1="28" y1="36" x2="100" y2="36" />
    <line x1="28" y1="92" x2="100" y2="92" />
    <line x1="36" y1="28" x2="36" y2="100" />
    <line x1="92" y1="28" x2="92" y2="100" />
  </g>

  <g stroke="#151515" stroke-width="5.1" stroke-linecap="square" stroke-linejoin="miter">
    <path d="M48 26V102" />
    <path d="M48 26H61Q74 26 74 39V89Q74 102 61 102H48" />
    <path d="M80 26V102" />
    <path d="M80 26H67Q54 26 54 39V89Q54 102 67 102H80" />
  </g>

  <line x1="64" y1="26" x2="64" y2="102" stroke="#151515" stroke-width="2.4" />
</svg>
